<?xml version="1.0" standalone="no"?>
<!DOCTYPE svg PUBLIC "-//W3C//DTD SVG 20010904//EN"
 "http://www.w3.org/TR/2001/REC-SVG-20010904/DTD/svg10.dtd">
<svg version="1.0" xmlns="http://www.w3.org/2000/svg"
 width="200.000000pt" height="200.000000pt" viewBox="0 0 200.000000 200.000000"
 preserveAspectRatio="xMidYMid meet">
<metadata>
Created by potrace 1.11, written by Peter Selinger 2001-2013
</metadata>
<g transform="translate(0.000000,200.000000) scale(0.100000,-0.100000)"
fill="#000000" stroke="none">
<path d="M239 1715 c-1 0 -2 -308 -3 -685 l-1 -685 94 -5 95 -5 -1 -42 -1 -43
67 1 c36 1 72 6 80 13 12 8 13 8 7 -1 -10 -18 95 -18 113 -1 11 10 13 10 7 1
-4 -7 -3 -13 2 -13 6 0 10 97 10 250 0 187 -3 248 -11 243 -9 -5 -9 -3 0 8 16
20 16 122 0 113 -8 -5 -8 -3 1 7 6 7 12 26 12 42 l0 28 26 -28 c15 -15 30 -27
35 -26 5 2 8 -1 6 -5 -1 -5 12 -22 29 -40 24 -24 34 -28 43 -19 9 9 11 8 5 -6
-8 -23 100 -131 123 -123 12 5 13 3 6 -6 -8 -10 -1 -22 23 -47 l33 -33 105
103 c58 57 102 107 99 113 -3 5 -1 6 4 3 13 -8 36 17 25 28 -4 5 -2 5 4 2 12
-7 111 91 106 105 -1 5 2 7 8 3 6 -4 10 -115 10 -316 l0 -309 39 0 c36 0 40
-3 43 -27 2 -16 8 -27 14 -26 6 1 11 -5 11 -12 0 -11 -4 -12 -14 -4 -10 9 -13
8 -13 -5 0 -20 69 -23 89 -3 11 9 12 9 7 0 -5 -10 17 -12 94 -12 l100 0 0 55
c0 30 -4 53 -8 50 -5 -3 -9 1 -9 8 0 8 5 12 11 10 15 -6 9 295 -6 313 -8 10
-7 12 3 8 12 -4 14 54 11 381 l-2 386 -35 -5 -34 -5 -3 130 -3 130 -161 3
-161 3 -204 -204 -204 -204 -203 202 -202 203 -160 0 c-88 0 -161 0 -161 0z
m1503 -310 c2 3 5 -2 5 -10 0 -19 0 -19 -23 7 -12 14 -13 18 -3 10 9 -6 18
-10 21 -7z m0 -40 c2 3 5 -2 5 -10 0 -10 -4 -12 -12 -5 -7 5 -16 6 -21 2 -5
-4 -6 -3 -2 2 4 5 2 16 -4 25 -10 12 -7 12 8 -2 11 -9 23 -15 26 -12z m0 -40
c2 3 5 -2 5 -10 0 -19 0 -19 -23 7 -12 14 -13 18 -3 10 9 -6 18 -10 21 -7z m0
-40 c2 3 5 -2 5 -10 0 -10 -4 -12 -12 -5 -7 5 -16 6 -21 2 -5 -4 -6 -3 -2 2 4
5 2 16 -4 25 -10 12 -7 12 8 -2 11 -9 23 -15 26 -12z m-1166 -7 c3 -4 -1 -5
-10 -4 -8 1 -18 5 -22 8 -3 4 1 5 10 4 8 -1 18 -5 22 -8z m34 -24 c0 0 -8 -8
-18 -17 -16 -15 -18 -15 -18 1 0 10 8 18 18 18 10 0 18 -1 18 -2z m1132 -9 c2
3 5 -2 5 -10 0 -19 0 -19 -23 7 -12 14 -13 18 -3 10 9 -6 18 -10 21 -7z m-412
1 c0 -2 -7 -7 -16 -10 -8 -3 -12 -2 -9 4 6 10 25 14 25 6z m51 -13 c13 -16 12
-17 -3 -4 -17 13 -22 21 -14 21 2 0 10 -8 17 -17z m-773 -23 c-7 -10 -14 -17
-17 -15 -4 4 18 35 25 35 2 0 -1 -9 -8 -20z m753 3 c13 -16 12 -17 -3 -4 -17
13 -22 21 -14 21 2 0 10 -8 17 -17z m364 -11 c-3 -3 1 -12 8 -21 11 -14 10
-14 -6 -2 -9 8 -15 16 -12 19 3 3 -1 12 -8 21 -11 14 -10 14 6 2 9 -8 15 -16
12 -19z m-1076 5 c-2 -1 -13 -9 -24 -17 -19 -14 -19 -14 -6 3 7 9 18 17 24 17
6 0 8 -1 6 -3z m692 -14 c13 -16 12 -17 -3 -4 -17 13 -22 21 -14 21 2 0 10 -8
17 -17z m-74 -28 c0 -8 -3 -13 -5 -10 -3 3 -12 -1 -21 -7 -10 -8 -9 -4 3 10
23 26 23 26 23 7z m-693 -7 c-2 -3 -13 -6 -24 -5 -24 2 -18 13 9 13 11 0 18
-4 15 -8z m37 -1 c-6 -8 -9 -16 -6 -19 3 -2 -2 -5 -10 -5 -13 0 -13 3 2 19 19
21 31 25 14 5z m33 4 c3 -5 -2 -15 -12 -22 -15 -12 -16 -12 -5 2 7 9 10 19 6
22 -3 4 -4 7 0 7 3 0 8 -4 11 -9z m57 -8 c13 -16 12 -17 -3 -5 -9 8 -23 10
-29 6 -8 -4 -9 -3 -5 4 10 17 21 15 37 -5z m615 -11 c-17 -16 -18 -16 -5 5 7
12 15 20 18 17 3 -2 -3 -12 -13 -22z m405 11 c13 -16 12 -17 -3 -4 -17 13 -22
21 -14 21 2 0 10 -8 17 -17z m-375 -28 c-1 -8 -5 -17 -8 -21 -5 -4 -4 16 1 34
3 9 9 -1 7 -13z m-659 -15 c-1 -12 -10 -29 -22 -38 l-20 -17 20 24 c11 13 19
25 18 27 -5 7 -3 24 1 24 3 0 4 -9 3 -20z m-67 -5 c0 -1 -10 -10 -22 -21 -14
-12 -18 -13 -10 -3 6 9 10 18 7 21 -3 2 2 5 10 5 8 0 15 -1 15 -2z m40 0 c0
-1 -12 -12 -27 -26 -20 -17 -23 -18 -10 -3 9 11 15 23 12 26 -3 2 2 5 10 5 8
0 15 -1 15 -2z m105 -5 c3 -5 1 -10 -4 -10 -6 0 -11 5 -11 10 0 6 2 10 4 10 3
0 8 -4 11 -10z m986 -17 c13 -16 12 -17 -3 -4 -17 13 -22 21 -14 21 2 0 10 -8
17 -17z m-503 -18 c17 -19 16 -20 -3 -4 -11 9 -30 15 -42 14 -12 -1 -20 2 -17
6 8 14 45 5 62 -16z m73 8 c12 -16 12 -17 -2 -6 -9 7 -20 9 -24 5 -5 -4 -5 -1
-1 6 9 16 11 15 27 -5z m60 0 c13 -17 13 -17 -6 -3 -11 8 -22 16 -24 17 -2 2
0 3 6 3 6 0 17 -8 24 -17z m342 -1 c15 -16 15 -19 2 -19 -8 0 -13 3 -10 5 3 3
0 11 -6 19 -17 20 -5 16 14 -5z m-1158 -2 c-3 -5 -12 -10 -18 -10 -7 0 -6 4 3
10 19 12 23 12 15 0z m796 -17 c13 -16 12 -17 -3 -4 -17 13 -22 21 -14 21 2 0
10 -8 17 -17z m-135 -19 c1 -9 0 -13 -4 -10 -3 4 -7 14 -8 22 -1 9 0 13 4 10
3 -4 7 -14 8 -22z m-661 -34 c1 -22 -1 -38 -4 -35 -3 3 -6 24 -7 46 -1 22 1
38 4 35 3 -3 6 -24 7 -46z m160 41 c-3 -2 -20 -5 -38 -6 -17 0 -37 -4 -43 -7
-6 -4 -11 -2 -11 5 0 8 18 12 49 13 26 0 46 -2 43 -5z m616 -8 c13 -16 12 -17
-3 -4 -17 13 -22 21 -14 21 2 0 10 -8 17 -17z m-719 -27 c3 3 8 1 12 -4 11
-18 -25 -8 -41 12 -18 21 -18 21 3 3 11 -9 23 -14 26 -11z m143 16 c-3 -3 0
-11 6 -19 17 -20 5 -16 -14 5 -15 16 -15 19 -2 19 8 0 13 -3 10 -5z m45 -6
c-7 -7 -13 -7 -20 0 -6 6 -3 10 10 10 13 0 16 -4 10 -10z m357 7 c-4 -3 1 -16
10 -27 18 -21 18 -21 -4 -2 -25 21 -30 36 -11 36 6 0 8 -3 5 -7z m34 -10 c13
-16 12 -17 -3 -4 -10 7 -18 15 -18 17 0 8 8 3 21 -13z m128 -17 c-3 -3 -11 5
-18 17 -13 21 -12 21 5 5 10 -10 16 -20 13 -22z m396 26 c-3 -3 0 -11 6 -19
17 -20 5 -16 -14 5 -15 16 -15 19 -2 19 8 0 13 -3 10 -5z m-1028 -20 c-10 -10
-14 -22 -10 -25 3 -4 1 -7 -5 -7 -7 0 -12 3 -12 7 0 8 31 43 38 43 3 0 -2 -8
-11 -18z m162 -16 c-3 -3 -11 5 -18 17 -13 21 -12 21 5 5 10 -10 16 -20 13
-22z m408 19 c0 -8 -3 -13 -5 -10 -3 3 -12 -1 -21 -7 -10 -8 -9 -4 3 10 23 26
23 26 23 7z m-532 -24 c-9 -8 -36 -10 -30 -2 2 4 11 8 20 8 8 0 13 -3 10 -6z
m391 -27 c1 -9 -1 -13 -4 -9 -4 4 -7 10 -7 13 0 4 -4 14 -9 22 -7 12 -6 13 4
3 8 -7 15 -20 16 -29z m-308 17 c15 13 16 12 4 -3 -8 -9 -11 -21 -8 -26 3 -5
-1 -9 -9 -9 -8 0 -13 3 -10 5 3 3 -3 15 -12 26 -17 20 -17 20 0 7 14 -11 20
-11 35 0z m250 -16 c-3 -3 -9 2 -12 12 -6 14 -5 15 5 6 7 -7 10 -15 7 -18z
m199 10 c0 -8 -3 -13 -5 -10 -3 3 -15 -3 -26 -12 -15 -14 -18 -14 -8 -2 6 9 8
20 4 24 -4 5 -2 5 5 1 6 -3 14 -2 18 4 9 14 12 13 12 -5z m79 0 c-1 -8 -5 -17
-8 -21 -5 -4 -4 16 1 34 3 9 9 -1 7 -13z m405 -2 c13 -16 12 -17 -3 -4 -17 13
-22 21 -14 21 2 0 10 -8 17 -17z m-981 -18 c14 -19 14 -19 -2 -6 -10 7 -18 18
-18 24 0 6 1 8 3 6 1 -2 9 -13 17 -24z m94 9 c3 -8 2 -12 -4 -9 -6 3 -10 10
-10 16 0 14 7 11 14 -7z m861 -4 c10 -11 16 -20 13 -20 -3 0 -13 9 -23 20 -10
11 -16 20 -13 20 3 0 13 -9 23 -20z m-1151 -12 c-3 -4 -9 -8 -15 -8 -5 0 -9 4
-9 8 0 5 7 9 15 9 8 0 12 -4 9 -9z m88 -12 c3 3 8 1 12 -4 11 -18 -25 -8 -41
12 -18 21 -18 21 3 3 11 -9 23 -14 26 -11z m503 16 c-3 -3 0 -11 6 -19 17 -20
5 -16 -14 5 -15 16 -15 19 -2 19 8 0 13 -3 10 -5z m40 -10 c-3 -3 -11 0 -18 7
-9 10 -8 11 6 5 10 -3 15 -9 12 -12z m-343 -7 c2 3 5 -2 5 -10 0 -19 0 -19
-23 7 -12 14 -13 18 -3 10 9 -6 18 -10 21 -7z m54 -7 c12 -14 13 -18 3 -10 -9
6 -18 10 -21 7 -2 -3 -5 2 -5 10 0 19 0 19 23 -7z m154 18 c0 -2 -8 -10 -17
-17 -16 -13 -17 -12 -4 4 13 16 21 21 21 13z m41 -13 c13 -16 12 -17 -3 -4
-10 7 -18 15 -18 17 0 8 8 3 21 -13z m155 -2 c0 -16 -3 -17 -14 -9 -12 10 -7
19 13 28 1 0 1 -9 1 -19z m-657 6 c-2 -1 -13 -9 -24 -17 -19 -14 -19 -14 -6 3
7 9 18 17 24 17 6 0 8 -1 6 -3z m412 -14 c13 -16 12 -17 -3 -4 -10 7 -18 15
-18 17 0 8 8 3 21 -13z m319 14 c0 -2 -10 -12 -22 -23 l-23 -19 19 23 c18 21
26 27 26 19z m381 -14 c13 -16 12 -17 -3 -4 -17 13 -22 21 -14 21 2 0 10 -8
17 -17z m-633 -6 c8 -10 6 -13 -11 -14 -12 0 -16 1 -9 4 6 3 10 9 6 14 -8 14
2 11 14 -4z m-283 -5 c-3 -3 0 -10 5 -17 7 -8 5 -12 -5 -12 -8 0 -13 3 -10 5
3 3 0 10 -5 17 -7 8 -5 12 5 12 8 0 13 -3 10 -5z m40 -20 c-3 -3 1 -12 8 -21
11 -14 10 -14 -6 -2 -9 8 -15 16 -12 19 3 3 -1 12 -8 21 -11 14 -10 14 6 2 9
-8 15 -16 12 -19z m290 18 c-3 -5 -12 -10 -18 -10 -7 0 -6 4 3 10 19 12 23 12
15 0z m106 -7 c13 -16 12 -17 -3 -4 -10 7 -18 15 -18 17 0 8 8 3 21 -13z
m-570 -10 c13 -16 12 -17 -3 -4 -10 7 -18 15 -18 17 0 8 8 3 21 -13z m235 -9
c1 -9 0 -13 -4 -10 -3 4 -7 14 -8 22 -1 9 0 13 4 10 3 -4 7 -14 8 -22z m-312
4 c-4 -5 -9 -7 -12 -4 -3 3 -12 0 -21 -7 -14 -10 -14 -10 -4 4 13 16 46 23 37
7z m627 -5 c13 -16 12 -17 -3 -4 -10 7 -18 15 -18 17 0 8 8 3 21 -13z m64 -1
c-3 -3 -11 0 -18 7 -9 10 -8 11 6 5 10 -3 15 -9 12 -12z m458 -2 c10 -12 9
-12 -4 -2 -9 6 -18 9 -21 6 -3 -3 -9 -1 -12 4 -9 15 22 8 37 -8z m-1093 -6 c0
-8 -19 -13 -24 -6 -3 5 1 9 9 9 8 0 15 -2 15 -3z m320 2 c0 -2 -7 -7 -16 -10
-8 -3 -12 -2 -9 4 6 10 25 14 25 6z m38 -13 c-12 -15 -22 -18 -14 -4 4 5 0 11
-6 14 -7 3 -3 4 9 4 17 -1 19 -4 11 -14z m42 2 c-5 -7 -9 -14 -7 -16 1 -2 0
-3 -2 -2 -2 2 -11 -3 -20 -9 -12 -10 -12 -7 2 8 9 11 15 23 12 26 -3 2 2 5 10
5 10 0 12 -4 5 -12z m34 6 c3 -5 -2 -15 -12 -22 -15 -12 -16 -12 -5 2 7 9 10
19 6 22 -3 4 -4 7 0 7 3 0 8 -4 11 -9z m86 1 c0 -5 -10 -17 -22 -28 -23 -19
-23 -19 -5 2 9 11 14 24 10 27 -3 4 -1 7 5 7 7 0 12 -4 12 -8z m572 -17 c2 3
5 -2 5 -10 0 -19 0 -19 -23 7 -12 14 -13 18 -3 10 9 -6 18 -10 21 -7z m-1087
-5 c-3 -5 -12 -10 -18 -10 -7 0 -6 4 3 10 19 12 23 12 15 0z m36 -3 c-6 -8 -9
-16 -6 -19 3 -2 -2 -5 -10 -5 -13 0 -13 3 2 19 19 21 31 25 14 5z m232 -5 c15
-16 15 -19 2 -19 -8 0 -13 3 -10 5 3 3 0 11 -6 19 -17 20 -5 16 14 -5z m58 1
c13 -16 12 -17 -3 -4 -10 7 -18 15 -18 17 0 8 8 3 21 -13z m-86 -13 c3 -6 -1
-7 -9 -4 -18 7 -21 14 -7 14 6 0 13 -4 16 -10z m847 -15 c2 3 5 -2 5 -10 0
-10 -4 -12 -12 -5 -7 5 -16 6 -21 2 -5 -4 -6 -3 -2 2 4 5 2 16 -4 25 -10 12
-7 12 8 -2 11 -9 23 -15 26 -12z m-1111 -2 c13 -16 12 -17 -3 -4 -10 7 -18 15
-18 17 0 8 8 3 21 -13z m335 -1 c-3 -3 0 -12 6 -21 10 -13 10 -14 -2 -4 -16
15 -23 46 -8 37 5 -3 7 -9 4 -12z m-356 -17 c14 -19 14 -19 -2 -6 -10 7 -18
18 -18 24 0 6 1 8 3 6 1 -2 9 -13 17 -24z m414 9 c3 -8 2 -12 -4 -9 -6 3 -10
10 -10 16 0 14 7 11 14 -7z m77 -1 c13 -16 12 -17 -3 -4 -10 7 -18 15 -18 17
0 8 8 3 21 -13z m93 8 c-7 -8 -74 -9 -69 -1 2 3 19 6 39 6 19 0 33 -3 30 -5z
m-539 -21 c-3 -5 -12 -10 -18 -10 -7 0 -6 4 3 10 19 12 23 12 15 0z m45 5 c0
-1 -10 -10 -22 -21 -14 -12 -18 -13 -10 -3 6 9 10 18 7 21 -3 2 2 5 10 5 8 0
15 -1 15 -2z m389 -29 c-3 -3 -11 5 -18 17 -13 21 -12 21 5 5 10 -10 16 -20
13 -22z m-500 11 c8 -10 7 -14 -2 -14 -8 0 -14 6 -14 14 0 7 1 13 2 13 2 0 8
-6 14 -13z m335 -16 c-2 -3 -12 3 -22 13 -16 17 -16 18 5 5 12 -7 20 -15 17
-18z m98 14 c2 3 5 -2 5 -10 0 -19 0 -19 -23 7 -12 14 -13 18 -3 10 9 -6 18
-10 21 -7z m168 12 c0 -2 -10 -12 -22 -23 l-23 -19 19 23 c18 21 26 27 26 19z
m552 -12 c2 3 5 -2 5 -10 0 -19 0 -19 -23 7 -12 14 -13 18 -3 10 9 -6 18 -10
21 -7z m-772 -9 c0 -2 -8 -10 -17 -17 -16 -13 -17 -12 -4 4 13 16 21 21 21 13z
m-357 -21 c-3 -9 -8 -14 -10 -11 -3 3 -2 9 2 15 9 16 15 13 8 -4z m1112 -13
c-3 -3 1 -12 8 -21 11 -14 10 -14 -6 -2 -9 8 -15 16 -12 19 3 3 -1 12 -8 21
-11 14 -10 14 6 2 9 -8 15 -16 12 -19z m-1141 -12 c-6 -6 -10 -3 -10 10 0 13
4 16 10 10 7 -7 7 -13 0 -20z m82 15 c-1 -8 -5 -17 -8 -21 -5 -4 -4 16 1 34 3
9 9 -1 7 -13z m367 1 c11 1 16 0 13 -3 -3 -4 0 -13 6 -22 10 -12 7 -12 -8 2
-11 9 -23 15 -26 12 -3 -3 -11 3 -19 12 -12 16 -12 17 1 7 8 -6 23 -10 33 -8z
m73 -6 c0 -12 -4 -16 -9 -11 -5 5 -6 14 -3 20 10 15 12 14 12 -9z m-122 2 c3
-5 -1 -9 -9 -9 -8 0 -12 4 -9 9 3 4 7 8 9 8 2 0 6 -4 9 -8z m-376 -32 c-7 -10
-14 -17 -17 -15 -4 4 18 35 25 35 2 0 -1 -9 -8 -20z m82 7 c0 -2 -8 -11 -18
-20 -15 -14 -19 -15 -19 -2 0 8 4 12 8 9 4 -2 10 0 14 6 6 10 15 14 15 7z
m358 -23 c1 -1 -5 -7 -15 -15 -12 -10 -15 -10 -9 -1 4 7 2 20 -6 30 -12 16
-11 16 7 2 11 -8 21 -15 23 -16z m57 14 c5 4 5 1 1 -6 -6 -10 -11 -10 -22 -1
-8 6 -14 14 -14 16 0 3 6 0 13 -6 8 -6 18 -7 22 -3z m616 -15 c13 -16 12 -17
-3 -4 -17 13 -22 21 -14 21 2 0 10 -8 17 -17z m-1030 -16 c-6 -8 -9 -17 -6
-20 3 -4 2 -5 -2 -2 -3 3 -11 0 -18 -5 -8 -7 -12 -5 -12 5 0 8 4 12 8 10 3 -3
12 2 19 10 7 8 15 15 17 15 3 0 0 -6 -6 -13z m-105 -23 c1 -9 0 -13 -4 -10 -3
4 -7 14 -8 22 -1 9 0 13 4 10 3 -4 7 -14 8 -22z m-32 8 c3 -5 -1 -9 -9 -9 -8
0 -12 4 -9 9 3 4 7 8 9 8 2 0 6 -4 9 -8z m136 -25 c0 -2 -8 -11 -18 -20 -15
-14 -19 -15 -19 -2 0 8 4 12 8 9 4 -2 10 0 14 6 6 10 15 14 15 7z m1061 -14
c13 -16 12 -17 -3 -4 -17 13 -22 21 -14 21 2 0 10 -8 17 -17z m-1144 -17 c18
-21 18 -21 -3 -3 -11 9 -23 14 -26 11 -3 -3 -8 -1 -12 4 -11 18 25 8 41 -12z
m1116 6 c15 -16 15 -19 2 -19 -8 0 -13 3 -10 5 3 3 0 11 -6 19 -17 20 -5 16
14 -5z m-1032 -15 c-6 -8 -9 -17 -6 -20 3 -4 2 -5 -2 -2 -3 3 -11 0 -18 -5 -8
-7 -12 -5 -12 5 0 8 4 12 8 10 3 -3 12 2 19 10 7 8 15 15 17 15 3 0 0 -6 -6
-13z m-110 -30 c-10 -9 -11 -8 -5 6 3 10 9 15 12 12 3 -3 0 -11 -7 -18z m27
-17 c-7 -10 -14 -17 -17 -15 -4 4 18 35 25 35 2 0 -1 -9 -8 -20z m1117 12 c-3
-3 0 -11 6 -19 17 -20 5 -16 -14 5 -15 16 -15 19 -2 19 8 0 13 -3 10 -5z
m-1035 -5 c0 -2 -8 -11 -18 -20 -15 -14 -19 -15 -19 -2 0 8 4 12 8 9 4 -2 10
0 14 6 6 10 15 14 15 7z m1 -40 c-6 -8 -9 -17 -6 -20 3 -4 2 -5 -2 -2 -3 3
-11 0 -18 -5 -8 -7 -12 -5 -12 5 0 8 4 12 8 10 3 -3 12 2 19 10 7 8 15 15 17
15 3 0 0 -6 -6 -13z m-105 -23 c1 -9 0 -13 -4 -10 -3 4 -7 14 -8 22 -1 9 0 13
4 10 3 -4 7 -14 8 -22z m1165 9 c13 -16 12 -17 -3 -4 -17 13 -22 21 -14 21 2
0 10 -8 17 -17z m-1197 -1 c3 -5 -1 -9 -9 -9 -8 0 -12 4 -9 9 3 4 7 8 9 8 2 0
6 -4 9 -8z m1171 -12 c10 -11 16 -20 13 -20 -3 0 -13 9 -23 20 -10 11 -16 20
-13 20 3 0 13 -9 23 -20z m-1035 -13 c0 -2 -8 -11 -18 -20 -15 -14 -19 -15
-19 -2 0 8 4 12 8 9 4 -2 10 0 14 6 6 10 15 14 15 7z m-83 -31 c18 -21 18 -21
-3 -3 -11 9 -23 14 -26 11 -3 -3 -8 -1 -12 4 -11 18 25 8 41 -12z m1114 7 c13
-16 12 -17 -3 -4 -17 13 -22 21 -14 21 2 0 10 -8 17 -17z m-1030 -16 c-6 -8
-9 -17 -6 -20 3 -4 2 -5 -2 -2 -3 3 -11 0 -18 -5 -8 -7 -12 -5 -12 5 0 8 4 12
8 10 3 -3 12 2 19 10 7 8 15 15 17 15 3 0 0 -6 -6 -13z m-126 -7 c-4 -6 -1
-19 6 -28 12 -16 12 -16 -5 0 -16 14 -15 38 0 38 3 0 2 -5 -1 -10z m1160 -8
c-3 -3 0 -11 6 -19 17 -20 5 -16 -14 5 -15 16 -15 19 -2 19 8 0 13 -3 10 -5z
m-1103 -37 c2 3 5 -2 5 -10 0 -19 0 -19 -23 7 -12 14 -13 18 -3 10 9 -6 18
-10 21 -7z m68 12 c0 -2 -8 -11 -18 -20 -15 -14 -19 -15 -19 -2 0 8 4 12 8 9
4 -2 10 0 14 6 6 10 15 14 15 7z m-89 -44 c13 -16 12 -17 -3 -4 -17 13 -22 21
-14 21 2 0 10 -8 17 -17z m90 4 c-6 -8 -9 -17 -6 -20 3 -4 2 -5 -2 -2 -3 3
-11 0 -18 -5 -8 -7 -12 -5 -12 5 0 8 4 12 8 10 3 -3 12 2 19 10 7 8 15 15 17
15 3 0 0 -6 -6 -13z m1038 -3 c-6 -7 -7 -19 -3 -25 4 -7 3 -9 -4 -5 -15 9 -11
43 5 43 9 0 10 -4 2 -13z m-223 -20 c1 -9 0 -13 -4 -10 -3 4 -7 14 -8 22 -1 9
0 13 4 10 3 -4 7 -14 8 -22z m35 -7 c-10 -9 -11 -8 -5 6 3 10 9 15 12 12 3 -3
0 -11 -7 -18z m80 6 c13 -17 13 -17 -6 -3 -11 8 -22 16 -24 17 -2 2 0 3 6 3 6
0 17 -8 24 -17z m-1131 -17 c-7 -7 -13 -7 -20 0 -6 6 -3 10 10 10 13 0 16 -4
10 -10z m50 9 c0 -1 -10 -10 -22 -21 -14 -12 -18 -13 -10 -3 6 9 10 18 7 21
-3 2 2 5 10 5 8 0 15 -1 15 -2z m80 1 c0 -2 -8 -10 -17 -17 -16 -13 -17 -12
-4 4 13 16 21 21 21 13z m1070 -2 c0 -8 -19 -13 -24 -6 -3 5 1 9 9 9 8 0 15
-2 15 -3z m-1000 -7 c0 -2 -8 -11 -18 -20 -15 -14 -19 -15 -19 -2 0 8 4 12 8
9 4 -2 10 0 14 6 6 10 15 14 15 7z m880 0 c0 -2 -8 -11 -18 -20 -15 -14 -19
-15 -19 -2 0 8 4 12 8 9 4 -2 10 0 14 6 6 10 15 14 15 7z m140 -1 c0 -2 -8
-10 -17 -17 -16 -13 -17 -12 -4 4 13 16 21 21 21 13z m-1249 -23 c13 -17 13
-17 -6 -3 -11 8 -22 16 -24 17 -2 2 0 3 6 3 6 0 17 -8 24 -17z m99 13 c0 -2
-8 -10 -17 -17 -16 -13 -17 -12 -4 4 13 16 21 21 21 13z m1101 -13 c13 -16 12
-17 -3 -4 -17 13 -22 21 -14 21 2 0 10 -8 17 -17z m80 0 c13 -16 12 -17 -3 -4
-17 13 -22 21 -14 21 2 0 10 -8 17 -17z"/>
</g>
</svg>
